<?xml version="1.0" encoding="UTF-8" standalone="no"?>
<!-- Created with Inkscape (http://www.inkscape.org/) -->

<svg
   version="1.1"
   id="svg1"
   width="1303.7661"
   height="405.83215"
   viewBox="0 0 1303.7661 405.83215"
   sodipodi:docname="JAxtar.svg"
   inkscape:export-filename="JAxtar.svg"
   inkscape:export-xdpi="96"
   inkscape:export-ydpi="96"
   inkscape:version="1.3.2 (091e20e, 2023-11-25, custom)"
   xmlns:inkscape="http://www.inkscape.org/namespaces/inkscape"
   xmlns:sodipodi="http://sodipodi.sourceforge.net/DTD/sodipodi-0.dtd"
   xmlns:xlink="http://www.w3.org/1999/xlink"
   xmlns="http://www.w3.org/2000/svg"
   xmlns:svg="http://www.w3.org/2000/svg">
  <defs
     id="defs1">
    <linearGradient
       id="linearGradient13"
       inkscape:collect="always">
      <stop
         style="stop-color:#4033cb;stop-opacity:1;"
         offset="0"
         id="stop13" />
      <stop
         style="stop-color:#5258fa;stop-opacity:1;"
         offset="1"
         id="stop14" />
    </linearGradient>
    <linearGradient
       inkscape:collect="always"
       xlink:href="#linearGradient13"
       id="linearGradient14"
       x1="488.86615"
       y1="671.31799"
       x2="515.67273"
       y2="408.2861"
       gradientUnits="userSpaceOnUse" />
    <linearGradient
       inkscape:collect="always"
       xlink:href="#linearGradient13"
       id="linearGradient17"
       gradientUnits="userSpaceOnUse"
       x1="488.86615"
       y1="671.31799"
       x2="515.67273"
       y2="408.2861" />
    <linearGradient
       inkscape:collect="always"
       xlink:href="#linearGradient13"
       id="linearGradient18"
       gradientUnits="userSpaceOnUse"
       x1="488.86615"
       y1="671.31799"
       x2="515.67273"
       y2="408.2861" />
    <linearGradient
       inkscape:collect="always"
       xlink:href="#linearGradient13"
       id="linearGradient19"
       gradientUnits="userSpaceOnUse"
       x1="488.86615"
       y1="671.31799"
       x2="515.67273"
       y2="408.2861" />
    <linearGradient
       inkscape:collect="always"
       xlink:href="#linearGradient13"
       id="linearGradient20"
       gradientUnits="userSpaceOnUse"
       x1="488.86615"
       y1="671.31799"
       x2="515.67273"
       y2="408.2861"
       gradientTransform="matrix(0.60260328,0,0,0.60260328,196.84541,219.91129)" />
  </defs>
  <sodipodi:namedview
     id="namedview1"
     pagecolor="#ffffff"
     bordercolor="#000000"
     borderopacity="0.25"
     inkscape:showpageshadow="2"
     inkscape:pageopacity="0.0"
     inkscape:pagecheckerboard="true"
     inkscape:deskcolor="#d1d1d1"
     inkscape:zoom="0.66172454"
     inkscape:cx="810.76032"
     inkscape:cy="147.34228"
     inkscape:window-width="2560"
     inkscape:window-height="1369"
     inkscape:window-x="-8"
     inkscape:window-y="-8"
     inkscape:window-maximized="1"
     inkscape:current-layer="g6">
    <inkscape:page
       x="0"
       y="0"
       width="1303.7661"
       height="405.83215"
       id="page20"
       margin="0 0 0"
       bleed="0" />
  </sodipodi:namedview>
  <g
     id="g6"
     inkscape:label="g6"
     style="display:inline;fill:url(#linearGradient14);fill-opacity:1"
     transform="matrix(1.6657512,0,0,1.6657512,-466.31041,-673.58528)">
    <g
       id="g7"
       transform="translate(-14.986006,-16.199097)"
       style="fill:url(#linearGradient19);fill-opacity:1">
      <path
         style="display:inline;fill:url(#linearGradient17);fill-opacity:1;stroke-width:0.614612"
         d="m 945.83599,530.20723 c -14.94792,-1.98257 -24.54024,-13.99936 -22.47103,-28.15075 1.95392,-13.36293 9.81291,-18.24558 32.61214,-20.26143 18.8056,-1.66275 21.84591,-4.03587 17.02858,-13.29193 -4.5667,-8.77465 -26.86238,-6.27684 -26.86238,3.00943 0,0.54185 -2.75906,0.73523 -10.48984,0.73523 -9.69508,0 -10.46703,-0.0815 -10.18923,-1.07557 0.16534,-0.59157 0.72605,-2.59674 1.24595,-4.45594 6.39375,-22.86355 48.9001,-29.16812 63.08646,-9.35703 5.05777,7.06305 5.12501,7.57752 5.37706,41.13348 l 0.22249,29.62532 -9.87657,0.18338 -9.87664,0.1834 v -5.37786 c 4.9e-4,-3.17607 -0.25076,-5.37786 -0.61375,-5.37786 -0.33804,0 -0.61462,0.29313 -0.61462,0.6514 0,6.12365 -17.37325,13.31303 -28.57948,11.82673 z m 14.67234,-15.24931 c 9.01575,-2.34829 13.90714,-9.32895 13.90714,-19.84733 0,-2.89172 -0.20042,-3.82831 -0.76826,-3.59042 -2.88075,1.2068 -7.91541,2.31169 -14.12367,3.09951 -11.79706,1.49704 -15.83869,4.19869 -15.83869,10.58755 0,8.33154 6.90566,12.33397 16.82348,9.75069 z m -68.49435,13.64338 c -6.12843,-1.7287 -10.68639,-5.56436 -13.62738,-11.46794 -1.35491,-2.71983 -1.3943,-3.37101 -1.69448,-27.98374 l -0.30731,-25.19911 -5.68516,-0.17672 -5.68517,-0.17671 v -7.9669 -7.9669 h 5.83882 5.83882 v -10.1411 -10.14111 h 10.44841 10.44841 v 10.14111 10.1411 h 8.31509 8.31516 l -0.17154,8.05885 -0.17148,8.05885 -8.14361,-0.0991 -8.14362,-0.0991 v 21.08071 c 0,26.95746 0.14167,27.31919 10.54036,27.13849 l 4.70252,-0.0817 0.71258,6.23116 c 0.39194,3.42714 0.85216,6.97377 1.02272,7.8814 0.54448,2.89755 -15.23151,4.83406 -22.55413,2.76853 z m -109.35761,-0.65856 c 2e-5,-0.29814 5.53947,-9.35939 12.30988,-20.13611 10.31643,-16.42105 12.20776,-19.78474 11.67954,-20.77174 -0.34666,-0.64774 -5.88609,-9.65867 -12.30984,-20.0243 -6.42375,-10.36564 -11.67954,-18.95927 -11.67954,-19.09696 0,-0.13769 5.07232,-0.25035 11.27182,-0.25035 h 11.27182 l 6.67677,11.52398 c 3.67221,6.3382 7.13088,12.28726 7.68591,13.22015 l 1.00916,1.69617 7.54715,-12.96152 c 4.15094,-7.12882 7.86815,-13.08468 8.26046,-13.23522 0.39232,-0.15055 5.47909,-0.19779 11.30389,-0.10499 l 10.59064,0.16874 -12.64959,19.88862 c -6.95729,10.93875 -12.51294,20.24478 -12.3459,20.68008 0.16703,0.43529 2.7147,4.48446 5.66148,8.99815 10.4563,16.01637 19.31372,29.98672 19.3144,30.46369 4.3e-4,0.26603 -5.04707,0.389 -11.21668,0.27328 L 835.82039,528.064 828.1553,515.24755 c -4.2158,-7.04905 -7.81129,-12.67168 -7.98996,-12.49474 -0.17868,0.17695 -3.7953,5.98316 -8.03693,12.90269 l -7.71205,12.58097 -10.88002,0.12418 c -5.98401,0.0683 -10.88,-0.11976 -10.87997,-0.41791 z m 228.91953,0.31524 c -0.1238,-0.12476 -0.2439,-18.30961 -0.2667,-40.41077 l -0.041,-40.18393 h 10.1534 10.1533 l 0.017,7.2217 0.017,7.22169 1.9422,-3.58022 c 4.1625,-7.67299 10.4552,-11.49422 19.6902,-11.95666 l 5.9924,-0.30007 -2e-4,9.1477 -2e-4,9.1477 -6.2995,0.0461 c -18.6046,0.13619 -20.687,4.22068 -20.7214,40.64329 l -0.022,22.86565 -10.1939,0.18232 c -5.6067,0.10028 -10.2953,0.0803 -10.4192,-0.0445 z"
         id="path4"
         sodipodi:nodetypes="csssssscssccccssccsssssscsscccccccccccccccccccsscssccsssssscsscssscssssscssscsscscccccsscccsscscc" />
      <path
         style="display:inline;fill:url(#linearGradient18);fill-opacity:1"
         d="m 573.18697,650.99713 c -26.12209,-3.46134 -43.1873,-20.16021 -43.52496,-42.5906 l -0.11086,-7.36402 16,-0.0167 16,-0.0167 0.6667,4.55486 c 2.73574,18.69048 31.96125,22.28107 41.18971,5.0605 2.12223,-3.96014 2.14641,-4.67262 2.4264,-71.5 l 0.2828,-67.5 17.2172,0.20136 17.21719,0.20135 v 67.79865 c 0,54.90555 -0.26501,68.74948 -1.39357,72.79864 -7.65708,27.4729 -33.73867,42.6436 -65.97061,38.37266 z m 78.86418,-3.81414 c 0,-0.51781 4.09592,-12.78031 9.10205,-27.25 5.00612,-14.46969 17.78681,-51.73352 28.40154,-82.80852 10.61472,-31.075 19.9513,-58.3 20.74795,-60.5 l 1.44847,-4 21.89999,-0.26197 21.9,-0.26196 8.37408,23.76196 c 10.5428,29.91587 34.8406,99.61321 45.15791,129.53382 l 7.85226,22.77185 -18.5755,-0.27185 -18.57549,-0.27185 -6.75986,-19 -6.75985,-19 -32.5073,-0.26354 -32.50731,-0.26353 -2.96154,8.26353 c -1.62885,4.54495 -4.63581,13.32604 -6.68215,19.51354 l -3.72061,11.25 h -17.91732 c -10.53575,0 -17.91732,-0.38787 -17.91732,-0.94148 z m 104.45153,-68.30852 c -0.37579,-1.2375 -5.66406,-17.07369 -11.75171,-35.19153 l -11.06846,-32.94152 -11.31568,33.93042 c -6.22362,18.66174 -11.31568,34.49793 -11.31568,35.19153 0,0.97835 5.17187,1.2611 23.06739,1.2611 h 23.06739 z"
         id="path5"
         sodipodi:nodetypes="sscccssscccssssssscccsscccccccsscsssscssscs" />
    </g>
    <path
       style="display:inline;fill:url(#linearGradient20);fill-opacity:1;stroke-width:0.602603"
       d="m 317.36607,638.96847 c -13.91723,-3.74245 -24.12687,-13.912 -28.12948,-28.01902 -1.03548,-3.6495 -1.09678,-8.29449 -1.09678,-83.10788 v -79.24233 l 1.40141,-4.21823 c 4.51715,-13.59652 16.49593,-24.70463 29.51316,-27.36802 6.90695,-1.41319 155.74647,-0.86829 161.00473,0.58945 13.21881,3.66461 23.36824,13.43166 27.82695,26.77857 l 1.40915,4.21823 0.16924,77.43452 c 0.18799,86.01457 0.32581,82.6909 -3.7926,91.46378 -4.74045,10.09792 -11.87472,16.51822 -23.1635,20.84539 -4.43292,1.69922 -158.9727,2.2846 -165.14228,0.62554 z m 123.23237,-17.27082 34.95099,-0.15127 3.38937,-1.6645 c 6.12478,-3.00783 10.67272,-9.03127 11.92216,-15.79013 0.78881,-4.26707 0.887,-144.01846 0.10592,-150.75175 -1.10053,-9.48711 -7.65803,-16.43719 -17.24008,-18.27221 -2.61371,-0.50055 -23.67151,-0.64007 -76.8171,-0.509 l -73.21629,0.18057 -3.46297,1.3984 c -4.27161,1.72496 -9.67493,6.54925 -11.60809,10.36416 -2.73121,5.38976 -2.76472,6.48162 -2.57975,84.05136 l 0.17531,73.5176 1.91928,4.05151 c 2.17585,4.59309 6.46239,9.49705 10.23281,11.70666 l 2.55191,1.49552 16.14915,-16.46069 c 8.88204,-9.05337 22.49313,-22.88828 30.24687,-30.74425 22.4419,-22.73775 21.16702,-19.64582 21.12368,-51.23053 l -0.0317,-23.06859 -15.48537,15.75625 c -17.41649,17.72113 -17.48336,17.77537 -21.96209,17.81561 -6.72749,0.0604 -11.90269,-5.36608 -11.90269,-12.48074 0,-5.66903 -1.52648,-3.84525 32.22224,-38.49812 10.61518,-10.89957 19.6518,-20.31868 20.08137,-20.93134 2.42596,-3.45995 9.06651,-5.16033 12.73803,-3.26171 3.04505,1.57465 53.96603,54.18361 55.402,57.23853 4.89452,10.41263 -5.24253,21.62925 -15.25399,16.8785 -1.29989,-0.61684 -8.45375,-7.46568 -17.5269,-16.77961 l -15.33052,-15.73737 -0.01,23.5558 c -0.0157,37.22751 0.0451,37.09374 -31.59261,69.5499 -21.85671,22.42215 -27.97927,28.8164 -27.78162,29.01448 0.1143,0.11456 12.22997,0.14078 26.9237,0.0583 14.69373,-0.0825 42.44383,-0.21811 61.66687,-0.3013 z"
       id="path6"
       sodipodi:nodetypes="ssscsssscssssccssssscssscsscssscssssssssscsssssc" />
  </g>
</svg>
